<mxfile host="Electron" modified="2023-06-08T06:23:59.990Z" agent="Mozilla/5.0 (Windows NT 10.0; Win64; x64) AppleWebKit/537.36 (KHTML, like Gecko) draw.io/21.2.8 Chrome/112.0.5615.165 Electron/24.2.0 Safari/537.36" etag="-Bd36cKKkZ4hYQxk5exb" version="21.2.8" type="device">
  <diagram name="第 1 页" id="WWM39ZOv1ltZ5EY_W5AG">
    <mxGraphModel dx="1434" dy="844" grid="0" gridSize="10" guides="1" tooltips="1" connect="1" arrows="1" fold="1" page="1" pageScale="1" pageWidth="1654" pageHeight="2336" math="0" shadow="0">
      <root>
        <mxCell id="0" />
        <mxCell id="1" parent="0" />
        <mxCell id="YDAPjozrYrez-EE0sTBE-9" style="rounded=0;orthogonalLoop=1;jettySize=auto;html=1;exitX=0.5;exitY=0;exitDx=0;exitDy=0;entryX=0.5;entryY=1;entryDx=0;entryDy=0;" edge="1" parent="1" source="YDAPjozrYrez-EE0sTBE-1" target="YDAPjozrYrez-EE0sTBE-4">
          <mxGeometry relative="1" as="geometry" />
        </mxCell>
        <mxCell id="YDAPjozrYrez-EE0sTBE-10" style="rounded=0;orthogonalLoop=1;jettySize=auto;html=1;exitX=1;exitY=0;exitDx=0;exitDy=0;entryX=0;entryY=1;entryDx=0;entryDy=0;" edge="1" parent="1" source="YDAPjozrYrez-EE0sTBE-1" target="YDAPjozrYrez-EE0sTBE-5">
          <mxGeometry relative="1" as="geometry" />
        </mxCell>
        <mxCell id="YDAPjozrYrez-EE0sTBE-11" style="rounded=0;orthogonalLoop=1;jettySize=auto;html=1;exitX=0;exitY=0;exitDx=0;exitDy=0;" edge="1" parent="1" source="YDAPjozrYrez-EE0sTBE-1" target="YDAPjozrYrez-EE0sTBE-3">
          <mxGeometry relative="1" as="geometry" />
        </mxCell>
        <mxCell id="YDAPjozrYrez-EE0sTBE-12" style="rounded=0;orthogonalLoop=1;jettySize=auto;html=1;exitX=0;exitY=0.5;exitDx=0;exitDy=0;entryX=0.983;entryY=0.57;entryDx=0;entryDy=0;entryPerimeter=0;" edge="1" parent="1" source="YDAPjozrYrez-EE0sTBE-1" target="YDAPjozrYrez-EE0sTBE-2">
          <mxGeometry relative="1" as="geometry" />
        </mxCell>
        <mxCell id="YDAPjozrYrez-EE0sTBE-13" style="rounded=0;orthogonalLoop=1;jettySize=auto;html=1;exitX=1;exitY=0.5;exitDx=0;exitDy=0;" edge="1" parent="1" source="YDAPjozrYrez-EE0sTBE-1" target="YDAPjozrYrez-EE0sTBE-6">
          <mxGeometry relative="1" as="geometry" />
        </mxCell>
        <mxCell id="YDAPjozrYrez-EE0sTBE-14" style="rounded=0;orthogonalLoop=1;jettySize=auto;html=1;exitX=0;exitY=1;exitDx=0;exitDy=0;entryX=0.562;entryY=0;entryDx=0;entryDy=0;entryPerimeter=0;" edge="1" parent="1" source="YDAPjozrYrez-EE0sTBE-1" target="YDAPjozrYrez-EE0sTBE-8">
          <mxGeometry relative="1" as="geometry" />
        </mxCell>
        <mxCell id="YDAPjozrYrez-EE0sTBE-15" style="rounded=0;orthogonalLoop=1;jettySize=auto;html=1;exitX=1;exitY=1;exitDx=0;exitDy=0;entryX=0.421;entryY=0.025;entryDx=0;entryDy=0;entryPerimeter=0;" edge="1" parent="1" source="YDAPjozrYrez-EE0sTBE-1" target="YDAPjozrYrez-EE0sTBE-7">
          <mxGeometry relative="1" as="geometry" />
        </mxCell>
        <mxCell id="YDAPjozrYrez-EE0sTBE-1" value="数据结构知识体系" style="ellipse;whiteSpace=wrap;html=1;aspect=fixed;fillColor=#f8cecc;strokeColor=#b85450;" vertex="1" parent="1">
          <mxGeometry x="624" y="383" width="135" height="135" as="geometry" />
        </mxCell>
        <UserObject label="线性表" link="https://blog.liangrenchi.top/2020/06/06/%E7%9F%A5%E8%AF%86%E4%BD%93%E7%B3%BB%E6%9E%84%E5%BB%BA%E4%B8%AD%E6%8F%90%E7%A4%BA%E9%A1%B5%E9%9D%A2/" id="YDAPjozrYrez-EE0sTBE-2">
          <mxCell style="ellipse;whiteSpace=wrap;html=1;aspect=fixed;fillColor=#dae8fc;strokeColor=#6c8ebf;" vertex="1" parent="1">
            <mxGeometry x="399" y="379" width="121" height="121" as="geometry" />
          </mxCell>
        </UserObject>
        <UserObject label="栈与队列" link="https://blog.liangrenchi.top/2020/06/06/%E7%9F%A5%E8%AF%86%E4%BD%93%E7%B3%BB%E6%9E%84%E5%BB%BA%E4%B8%AD%E6%8F%90%E7%A4%BA%E9%A1%B5%E9%9D%A2/" id="YDAPjozrYrez-EE0sTBE-3">
          <mxCell style="ellipse;whiteSpace=wrap;html=1;aspect=fixed;fillColor=#dae8fc;strokeColor=#6c8ebf;" vertex="1" parent="1">
            <mxGeometry x="472" y="258" width="121" height="121" as="geometry" />
          </mxCell>
        </UserObject>
        <UserObject label="串" link="https://blog.liangrenchi.top/2020/06/06/%E7%9F%A5%E8%AF%86%E4%BD%93%E7%B3%BB%E6%9E%84%E5%BB%BA%E4%B8%AD%E6%8F%90%E7%A4%BA%E9%A1%B5%E9%9D%A2/" id="YDAPjozrYrez-EE0sTBE-4">
          <mxCell style="ellipse;whiteSpace=wrap;html=1;aspect=fixed;fillColor=#dae8fc;strokeColor=#6c8ebf;" vertex="1" parent="1">
            <mxGeometry x="631" y="163" width="121" height="121" as="geometry" />
          </mxCell>
        </UserObject>
        <UserObject label="树" link="https://blog.liangrenchi.top/2020/06/06/%E7%9F%A5%E8%AF%86%E4%BD%93%E7%B3%BB%E6%9E%84%E5%BB%BA%E4%B8%AD%E6%8F%90%E7%A4%BA%E9%A1%B5%E9%9D%A2/" id="YDAPjozrYrez-EE0sTBE-5">
          <mxCell style="ellipse;whiteSpace=wrap;html=1;aspect=fixed;fillColor=#dae8fc;strokeColor=#6c8ebf;" vertex="1" parent="1">
            <mxGeometry x="812" y="255" width="121" height="121" as="geometry" />
          </mxCell>
        </UserObject>
        <UserObject label="图" link="https://blog.liangrenchi.top/2020/06/06/%E7%9F%A5%E8%AF%86%E4%BD%93%E7%B3%BB%E6%9E%84%E5%BB%BA%E4%B8%AD%E6%8F%90%E7%A4%BA%E9%A1%B5%E9%9D%A2/" id="YDAPjozrYrez-EE0sTBE-6">
          <mxCell style="ellipse;whiteSpace=wrap;html=1;aspect=fixed;fillColor=#dae8fc;strokeColor=#6c8ebf;" vertex="1" parent="1">
            <mxGeometry x="880" y="388" width="121" height="121" as="geometry" />
          </mxCell>
        </UserObject>
        <UserObject label="查找" link="https://blog.liangrenchi.top/2020/06/06/%E7%9F%A5%E8%AF%86%E4%BD%93%E7%B3%BB%E6%9E%84%E5%BB%BA%E4%B8%AD%E6%8F%90%E7%A4%BA%E9%A1%B5%E9%9D%A2/" id="YDAPjozrYrez-EE0sTBE-7">
          <mxCell style="ellipse;whiteSpace=wrap;html=1;aspect=fixed;fillColor=#dae8fc;strokeColor=#6c8ebf;" vertex="1" parent="1">
            <mxGeometry x="752" y="548" width="121" height="121" as="geometry" />
          </mxCell>
        </UserObject>
        <UserObject label="排序" link="https://blog.liangrenchi.top/2020/06/06/%E7%9F%A5%E8%AF%86%E4%BD%93%E7%B3%BB%E6%9E%84%E5%BB%BA%E4%B8%AD%E6%8F%90%E7%A4%BA%E9%A1%B5%E9%9D%A2/" id="YDAPjozrYrez-EE0sTBE-8">
          <mxCell style="ellipse;whiteSpace=wrap;html=1;aspect=fixed;fillColor=#dae8fc;strokeColor=#6c8ebf;" vertex="1" parent="1">
            <mxGeometry x="514" y="545" width="121" height="121" as="geometry" />
          </mxCell>
        </UserObject>
      </root>
    </mxGraphModel>
  </diagram>
</mxfile>
